<svg xmlns="http://www.w3.org/2000/svg" xmlns:xlink="http://www.w3.org/1999/xlink" width="87.99995422363281" height="58" viewBox="0 0 87.99995422363281 58" fill="none">
<path     fill="#FF1A1A"  d="M29 -3.23796e-15L55.44 0L55.44 58L29 58C12.9837 58 -8.26935e-15 45.0162 -5.32721e-15 29L1.77574e-15 29C2.75645e-15 12.9837 12.9837 -5.19939e-15 29 -3.23796e-15Z">
</path>
<path     fill="#FF1A1A"  d="M38.4399 8.05555L38.4399 49.9444C38.4399 54.3934 42.0465 58 46.4955 58L53.965 58C60.0331 58 65.5034 54.344 67.8244 48.7373L83.3897 11.1367C85.5853 5.83288 81.687 -5.08283e-15 75.9467 -5.08283e-15L46.4955 -5.08283e-15C42.0465 -5.62767e-15 38.4399 3.60659 38.4399 8.05555Z">
</path>
<path d="M45.7505 5.0023L30.5004 5.0023C16.9694 5.0023 6.0004 15.9713 6.0004 29.5023C6.0004 43.0333 16.9694 54.0023 30.5004 54.0023L53.5145 54.0023L53.5145 53.9552C58.1739 53.553 62.2723 50.6021 64.1056 46.235L77.4521 14.4421C79.3348 9.95719 76.0411 5.0023 71.177 5.0023L45.7505 5.0023Z" stroke="rgba(0, 0, 0, 1)" stroke-width="2"    fill-rule="evenodd"  fill="#FF1A1A" >
</path>
<rect  transform="matrix(0.8108688592910767, 0.5852264761924744, -0.6983060240745544, 0.7157989144325256, 48.225860595703125, 15.00250244140625)" x="0" y="0" width="7.12103418617218" height="34.692188957096896" rx="3.56051709308609"    fill="#000000" >
</rect>
<rect  transform="matrix(0.8108688592910767, -0.5852264761924744, 0.6983060240745544, 0.7157989144325256, 24.000030517578125, 19.17034912109375)" x="0" y="0" width="7.12103418617218" height="34.692188957096896" rx="3.56051709308609"    fill="#000000" >
</rect>
</svg>
