<svg xmlns="http://www.w3.org/2000/svg" xmlns:xlink="http://www.w3.org/1999/xlink" width="210" height="60.000022888183594" viewBox="0 0 210 60.000022888183594" fill="none">
<path d="M21.4856 6.2861L5.48556 46.2861C2.85811 52.8548 7.69568 60 14.7703 60L152 60C157.523 60 162 55.5229 162 50L162 10C162 4.47715 157.523 0 152 0L30.7703 0C26.6813 -5.008e-16 23.0042 2.48951 21.4856 6.2861Z"   fill="#FFEA49" >
</path>
<path     fill="#FFEA49"  d="M158 -5.40314e-15C141.431 -7.43221e-15 128 13.4315 128 30C128 46.5686 141.431 60 158 60L172.12 60C188.689 60 202.12 46.5686 202.12 30C202.12 13.4315 188.689 -5.40314e-15 172.12 -5.40314e-15L158 -5.40314e-15Z">
</path>
</svg>
