<svg xmlns="http://www.w3.org/2000/svg" xmlns:xlink="http://www.w3.org/1999/xlink" width="210" height="60.000022888183594" viewBox="0 0 210 60.000022888183594" fill="none">
<path     fill="#FFEA49"  d="M21.4856 6.2861L5.48556 46.2861C2.85811 52.8548 7.69568 60 14.7703 60L152 60C157.523 60 162 55.5229 162 50L162 10C162 4.47715 157.523 -1.6071e-14 152 -1.6071e-14L30.7703 -1.6071e-14C26.6813 -1.65718e-14 23.0042 2.48951 21.4856 6.2861Z">
</path>
<path     fill="#FFEA49"  d="M135.882 9.99999L135.882 50C135.882 55.5229 140.36 60 145.882 60L181.356 60C185.572 60 189.335 57.3561 190.764 53.39L205.178 13.39C207.526 6.87287 202.697 -7.85244e-15 195.77 -7.85244e-15L145.882 -7.85244e-15C140.36 -8.52879e-15 135.882 4.47715 135.882 9.99999Z">
</path>
</svg>
