<svg xmlns="http://www.w3.org/2000/svg" xmlns:xlink="http://www.w3.org/1999/xlink" width="16" height="15" viewBox="0 0 16 15" fill="none">
<path d="M9.35745 0.469373C10.0033 0.162301 10.7174 0 11.4225 0C12.6685 0 13.8246 0.473653 14.6776 1.33368C15.5304 2.19343 16 3.3583 16 4.61374C16 7.66302 13.4246 10.032 9.52623 13.6178L9.36659 13.7646L8.26818 14.7575L7.99996 15L6.63085 13.7623L6.47341 13.6175C2.57526 10.0318 0 7.66294 0 4.61374C0 3.3583 0.469608 2.19341 1.32237 1.33368C2.17544 0.473631 3.33145 0 4.57746 0C5.28262 0 5.99671 0.162301 6.64252 0.469352C7.04966 0.662909 7.43173 0.91476 7.77235 1.21225L7.68258 1.83692C7.48175 3.03909 7.27602 3.7965 7.06442 4.11053C6.84203 4.45552 6.27676 4.77225 5.36958 5.06335L4.05878 5.39623C4.0196 5.41912 4 5.45687 4 5.51077L4.05878 5.60242L5.34509 5.97034C6.23659 6.26955 6.79305 6.57547 7.01544 6.88949C7.24369 7.2035 7.46608 7.969 7.68357 9.18599C7.78938 9.78302 7.87264 10.3652 7.93436 10.9313Q7.93436 11 7.99313 11L8.05975 10.9312L8.31742 9.2089C8.5349 8.00807 8.75729 7.25336 8.98555 6.94745C9.21479 6.62535 9.77125 6.30054 10.6559 5.9717L11.9334 5.60377L12 5.51079C12 5.45687 11.9775 5.41914 11.9334 5.39623L10.6559 5.0283C9.77026 4.71428 9.21382 4.38949 8.98555 4.05255C8.76806 3.75472 8.55154 3.00808 8.33407 1.81403L8.23663 1.20439C8.57499 0.910333 8.9539 0.661225 9.35745 0.469373Z" fill-rule="evenodd"  fill="#000000" >
</path>
</svg>
